<mxfile host="Electron" agent="Mozilla/5.0 (X11; Linux x86_64) AppleWebKit/537.36 (KHTML, like Gecko) draw.io/24.7.8 Chrome/128.0.6613.36 Electron/32.0.1 Safari/537.36" version="24.7.8">
  <diagram id="C5RBs43oDa-KdzZeNtuy" name="Page-1">
    <mxGraphModel dx="1728" dy="991" grid="1" gridSize="10" guides="1" tooltips="1" connect="1" arrows="1" fold="1" page="1" pageScale="1" pageWidth="827" pageHeight="1169" math="0" shadow="0">
      <root>
        <mxCell id="WIyWlLk6GJQsqaUBKTNV-0" />
        <mxCell id="WIyWlLk6GJQsqaUBKTNV-1" parent="WIyWlLk6GJQsqaUBKTNV-0" />
        <mxCell id="Q06gvqehb0tVf-gmrX-M-1" value="&lt;p style=&quot;margin:0px;margin-top:4px;text-align:center;&quot;&gt;&lt;b&gt;FuseLidar&lt;/b&gt;&lt;/p&gt;&lt;hr size=&quot;1&quot; style=&quot;border-style:solid;&quot;&gt;&lt;p style=&quot;margin: 0px 0px 0px 4px; font-size: 8px;&quot;&gt;&lt;font face=&quot;JetBrains Mono, monospace&quot; color=&quot;#7a7e85&quot;&gt;&lt;br&gt;&lt;/font&gt;&lt;/p&gt;&lt;p style=&quot;margin: 0px 0px 0px 4px; font-size: 8px;&quot;&gt;&lt;span style=&quot;color: rgb(122, 126, 133); font-family: &amp;quot;JetBrains Mono&amp;quot;, monospace;&quot;&gt;// 核心类-&amp;gt;Mapper.&lt;/span&gt;&lt;font face=&quot;JetBrains Mono, monospace&quot; color=&quot;#7a7e85&quot;&gt;&lt;br&gt;&lt;/font&gt;&lt;/p&gt;&lt;p style=&quot;margin: 0px 0px 0px 4px;&quot;&gt;&lt;font style=&quot;font-size: 10px;&quot;&gt;mapper_ : std::unique_ptr&amp;lt;RgbdMapper&amp;gt;&lt;/font&gt;&lt;/p&gt;&lt;p style=&quot;margin: 0px 0px 0px 4px; font-size: 8px;&quot;&gt;&lt;br&gt;&lt;/p&gt;&lt;p style=&quot;margin: 0px 0px 0px 4px; font-size: 8px;&quot;&gt;&lt;span style=&quot;background-color: initial; color: rgb(122, 126, 133); font-family: &amp;quot;JetBrains Mono&amp;quot;, monospace;&quot;&gt;// 参数部分-&amp;gt;Params.&lt;/span&gt;&lt;/p&gt;&lt;p style=&quot;margin: 0px 0px 0px 4px; font-size: 10px;&quot;&gt;&lt;span style=&quot;background-color: initial; font-family: &amp;quot;JetBrains Mono&amp;quot;, monospace;&quot;&gt;&lt;font style=&quot;font-size: 10px;&quot;&gt;voxle_size_m_ : float;&lt;/font&gt;&lt;/span&gt;&lt;/p&gt;&lt;p style=&quot;margin: 0px 0px 0px 4px; font-size: 10px;&quot;&gt;&lt;span style=&quot;background-color: initial; font-family: &amp;quot;JetBrains Mono&amp;quot;, monospace;&quot;&gt;&lt;font style=&quot;font-size: 10px;&quot;&gt;tsdf_frame_subsampling_ : int&lt;/font&gt;&lt;/span&gt;&lt;/p&gt;&lt;p style=&quot;margin: 0px 0px 0px 4px; font-size: 10px;&quot;&gt;&lt;span style=&quot;background-color: initial; font-family: &amp;quot;JetBrains Mono&amp;quot;, monospace;&quot;&gt;&lt;font style=&quot;font-size: 10px;&quot;&gt;color_frame_subsampling_: int&lt;/font&gt;&lt;/span&gt;&lt;/p&gt;&lt;p style=&quot;margin: 0px 0px 0px 4px; font-size: 8px;&quot;&gt;&lt;br&gt;&lt;/p&gt;&lt;p style=&quot;margin: 0px 0px 0px 4px; font-size: 8px;&quot;&gt;&lt;font face=&quot;JetBrains Mono, monospace&quot; color=&quot;#7a7e85&quot;&gt;// TSDF的参数(注意)&lt;/font&gt;&lt;/p&gt;&lt;p style=&quot;margin: 0px 0px 0px 4px; font-size: 8px;&quot;&gt;&lt;font face=&quot;JetBrains Mono, monospace&quot; color=&quot;#7a7e85&quot;&gt;// 雷达和相机间外参-&amp;gt;用于着色.&lt;/font&gt;&lt;/p&gt;&lt;p style=&quot;margin: 0px 0px 0px 4px; font-size: 8px;&quot;&gt;&lt;font face=&quot;JetBrains Mono, monospace&quot; color=&quot;#7a7e85&quot;&gt;&lt;br&gt;&lt;/font&gt;&lt;/p&gt;&lt;p style=&quot;margin: 0px 0px 0px 4px; font-size: 8px;&quot;&gt;&lt;font face=&quot;JetBrains Mono, monospace&quot; color=&quot;#7a7e85&quot;&gt;// 输出路径&lt;/font&gt;&lt;span style=&quot;background-color: initial; color: rgb(122, 126, 133); font-family: &amp;quot;JetBrains Mono&amp;quot;, monospace;&quot;&gt;-&amp;gt;O&lt;/span&gt;&lt;span style=&quot;background-color: initial; color: rgb(122, 126, 133); font-family: &amp;quot;JetBrains Mono&amp;quot;, monospace;&quot;&gt;utput path&lt;/span&gt;&lt;span style=&quot;background-color: initial; color: rgb(122, 126, 133); font-family: &amp;quot;JetBrains Mono&amp;quot;, monospace;&quot;&gt;.&lt;/span&gt;&lt;font face=&quot;JetBrains Mono, monospace&quot; color=&quot;#7a7e85&quot;&gt;&lt;br&gt;&lt;/font&gt;&lt;/p&gt;&lt;hr size=&quot;1&quot; style=&quot;border-style: solid; font-size: 16px;&quot;&gt;&lt;p style=&quot;margin: 0px 0px 0px 4px; font-size: 8px;&quot;&gt;&lt;br&gt;&lt;/p&gt;&lt;p style=&quot;margin: 0px 0px 0px 4px; font-size: 8px;&quot;&gt;&lt;font face=&quot;JetBrains Mono, monospace&quot; color=&quot;#7a7e85&quot;&gt;// 程序主要接口&lt;/font&gt;&lt;span style=&quot;background-color: initial; color: rgb(122, 126, 133); font-family: &amp;quot;JetBrains Mono&amp;quot;, monospace;&quot;&gt;.&lt;/span&gt;&lt;br&gt;&lt;/p&gt;&lt;p style=&quot;margin: 0px 0px 0px 4px;&quot;&gt;&lt;span style=&quot;background-color: initial; font-family: &amp;quot;JetBrains Mono&amp;quot;, monospace;&quot;&gt;&lt;font style=&quot;font-size: 10px;&quot;&gt;run(): int&lt;/font&gt;&lt;/span&gt;&lt;/p&gt;&lt;p style=&quot;margin: 0px 0px 0px 4px; font-size: 8px;&quot;&gt;&lt;span style=&quot;background-color: initial; color: rgb(122, 126, 133); font-family: &amp;quot;JetBrains Mono&amp;quot;, monospace;&quot;&gt;&lt;br&gt;&lt;/span&gt;&lt;/p&gt;&lt;p style=&quot;margin: 0px 0px 0px 4px; font-size: 8px;&quot;&gt;&lt;font face=&quot;JetBrains Mono, monospace&quot; color=&quot;#7a7e85&quot;&gt;// 获得建图接口&lt;/font&gt;&lt;span style=&quot;background-color: initial; color: rgb(122, 126, 133); font-family: &amp;quot;JetBrains Mono&amp;quot;, monospace;&quot;&gt;.&lt;/span&gt;&lt;span style=&quot;background-color: initial; color: rgb(122, 126, 133); font-family: &amp;quot;JetBrains Mono&amp;quot;, monospace;&quot;&gt;&lt;br&gt;&lt;/span&gt;&lt;/p&gt;&lt;p style=&quot;margin: 0px 0px 0px 4px; font-size: 10px;&quot;&gt;&lt;span style=&quot;background-color: initial; font-family: &amp;quot;JetBrains Mono&amp;quot;, monospace;&quot;&gt;mapper():&amp;nbsp;&lt;/span&gt;&lt;span style=&quot;font-family: &amp;quot;JetBrains Mono&amp;quot;, monospace; background-color: initial;&quot;&gt;RgbdMapper&amp;amp;&lt;/span&gt;&lt;/p&gt;&lt;p style=&quot;margin: 0px 0px 0px 4px; font-size: 8px;&quot;&gt;&lt;span style=&quot;background-color: initial; color: rgb(122, 126, 133); font-family: &amp;quot;JetBrains Mono&amp;quot;, monospace;&quot;&gt;&lt;br&gt;&lt;/span&gt;&lt;/p&gt;&lt;p style=&quot;margin: 0px 0px 0px 4px; font-size: 8px;&quot;&gt;&lt;font face=&quot;JetBrains Mono, monospace&quot; color=&quot;#7a7e85&quot;&gt;// 参数调整接口-&amp;gt;&lt;/font&gt;&lt;span style=&quot;color: rgb(122, 126, 133); font-family: &amp;quot;JetBrains Mono&amp;quot;, monospace; background-color: initial;&quot;&gt;主要记录和TSDF相关的参数.&lt;/span&gt;&lt;/p&gt;&lt;p style=&quot;margin: 0px 0px 0px 4px; font-size: 10px;&quot;&gt;&lt;font style=&quot;font-size: 10px;&quot; face=&quot;JetBrains Mono, monospace&quot;&gt;setVoxelSize(float voxel_size): void&lt;/font&gt;&lt;/p&gt;&lt;p style=&quot;margin: 0px 0px 0px 4px; font-size: 10px;&quot;&gt;&lt;font style=&quot;font-size: 10px;&quot; face=&quot;JetBrains Mono, monospace&quot;&gt;&lt;br&gt;&lt;/font&gt;&lt;/p&gt;&lt;p style=&quot;margin: 0px 0px 0px 4px; font-size: 10px;&quot;&gt;&lt;font style=&quot;font-size: 10px;&quot; face=&quot;JetBrains Mono, monospace&quot;&gt;setTsdfFrameSubsampling(int subsample): void&lt;/font&gt;&lt;/p&gt;&lt;p style=&quot;margin: 0px 0px 0px 4px; font-size: 10px;&quot;&gt;&lt;font style=&quot;font-size: 10px;&quot; face=&quot;JetBrains Mono, monospace&quot;&gt;&lt;br&gt;&lt;/font&gt;&lt;/p&gt;&lt;p style=&quot;margin: 0px 0px 0px 4px; font-size: 10px;&quot;&gt;&lt;font style=&quot;font-size: 10px;&quot; face=&quot;JetBrains Mono, monospace&quot;&gt;setColorFrameSubsampling(int subsample): void&lt;/font&gt;&lt;/p&gt;&lt;p style=&quot;margin: 0px 0px 0px 4px; font-size: 10px;&quot;&gt;&lt;font style=&quot;font-size: 10px;&quot; face=&quot;JetBrains Mono, monospace&quot;&gt;&lt;br&gt;&lt;/font&gt;&lt;/p&gt;&lt;p style=&quot;margin: 0px 0px 0px 4px; font-size: 10px;&quot;&gt;&lt;br&gt;&lt;/p&gt;" style="verticalAlign=top;align=left;overflow=fill;html=1;whiteSpace=wrap;" vertex="1" parent="WIyWlLk6GJQsqaUBKTNV-1">
          <mxGeometry x="20" y="40" width="440" height="340" as="geometry" />
        </mxCell>
      </root>
    </mxGraphModel>
  </diagram>
</mxfile>
